# xmcd CD database file
#
# Track frame offsets:
#	150
#	46281
#	105087
#	189673
#	207191
#	254304
#	283733
#
# Disc length: 4158 seconds
#
# Revision: 0
# Processed by: cddbd v1.5.2PL0 Copyright (c) Steve Scherf et al.
# Submitted via: CDex 1.51
#
DISCID=5c103c07
DTITLE=Clifford Brown - More live at the Bee Hive CD2
DYEAR=1956
DGENRE=Jazz
TTITLE0=Ballad Medley
TTITLE1=What am I here for?
TTITLE2=I'll remember April
TTITLE3=What's new
TTITLE4=Daahoud
TTITLE5=Lover man
TTITLE6=52nd Street theme
EXTD=YEAR: 1956
EXTT0=
EXTT1=
EXTT2=
EXTT3=
EXTT4=
EXTT5=
EXTT6=
PLAYORDER=
